# xmcd
#
# Track frame offsets:
#  150
#  13761
#  29184
#  41804
#
# Disc length: 751 seconds
#
# Revision: 1
# Processed by: cddbd v1.5.2PL0 Copyright (c) Steve Scherf et al.
# Submitted via: AltoMP3_Maker 3.0
#
DISCID=3302ed04
DTITLE=Katrina Burgoyne - Perfect (EP)
DYEAR=1900
DGENRE=
TTITLE0=Perfect
TTITLE1=Old Postcard
TTITLE2=Dumped
TTITLE3=2nd Gear
EXTD=
EXTT0=
EXTT1=
EXTT2=
EXTT3=
PLAYORDER=
